<svg height="480pt" viewBox="0 -5 480 480" width="480pt" xmlns="http://www.w3.org/2000/svg"><path d="m80 309.535156h288v160h-288zm0 0" fill="#4a4a56"/><path d="m136 341.535156h176v8c0 8.800782 7.199219 16 16 16h8v48h-8c-8.800781 0-16 7.199219-16 16v8h-176v-8c0-8.800781-7.199219-16-16-16h-8v-48h8c8.800781 0 16-7.199218 16-16zm0 0" fill="#676b7f"/><path d="m360 157.535156c-8.800781 0-16-7.199218-16-16v-48h32v48c0 8.800782-7.199219 16-16 16zm0 0" fill="#676b7f"/><path d="m48 101.535156h128c8.800781 0 16 7.199219 16 16v80c0 8.800782-7.199219 16-16 16h-128c-8.800781 0-16-7.199218-16-16v-80c0-8.800781 7.199219-16 16-16zm0 0" fill="#e2514d"/><path d="m248 173.535156h112c8.800781 0 16 7.199219 16 16v72c0 8.800782-7.199219 16-16 16h-112c-8.800781 0-16-7.199218-16-16v-72c0-8.800781 7.199219-16 16-16zm0 0" fill="#e2c8ac"/><path d="m104 133.535156v48l32-24zm0 0" fill="#fff"/><path d="m203.199219 9.535156c-8.800781-1.601562-16.800781 4-19.199219 12v3.199219 88.800781c0 8.800782 7.199219 16 16 16h3.199219l140.800781-28v-64zm0 0" fill="#2ab793"/><g fill="#4a4a56"><path d="m376 37.535156h-32v64h32c8.800781 0 16-7.199218 16-16v-32c0-8.800781-7.199219-16-16-16zm0 0"/><path d="m424 309.535156h16v160h-16zm0 0"/><path d="m456 309.535156h16v160h-16zm0 0"/></g><path d="m56 421.535156c-31.199219 0-56-24.800781-56-56v-72c0-31.199218 24.800781-56 56-56h152v16h-152c-22.398438 0-40 17.601563-40 40v72c0 22.398438 17.601562 40 40 40zm0 0" fill="#d6d7d8"/><path d="m130.460938 11.3125 11.316406-11.3125 23.757812 23.757812-11.3125 11.3125zm0 0" fill="#b4b4b5"/><path d="m128 61.535156h32v16h-32zm0 0" fill="#b4b4b5"/><path d="m240 389.535156c0 8.835938-7.164062 16-16 16s-16-7.164062-16-16c0-8.835937 7.164062-16 16-16s16 7.164063 16 16zm0 0" fill="#f4c167"/><path d="m264 381.535156h24v16h-24zm0 0" fill="#878b9b"/><path d="m160 381.535156h24v16h-24zm0 0" fill="#878b9b"/><path d="m432 61.535156h-16v16h16c17.601562 0 32 14.398438 32 32v96c0 17.601563-14.398438 32-32 32h-32v16h32c26.398438 0 48-21.601562 48-48v-96c0-26.398437-21.601562-48-48-48zm0 0" fill="#d6d7d8"/><path d="m392 309.535156h16v160h-16zm0 0" fill="#4a4a56"/><path d="m374.398438 182.335938c-2.398438-5.601563-8-8.800782-14.398438-8.800782h-112c-6.398438 0-12 3.199219-14.398438 8.800782l70.398438 47.199218zm0 0" fill="#ceb195"/><path d="m216 11.933594-12.800781-2.398438c-8.800781-1.601562-16.800781 4-19.199219 12v3.199219 88.800781c0 8.800782 7.199219 16 16 16h3.199219l12.800781-2.398437zm0 0" fill="#239172"/></svg>