<?xml version="1.0" encoding="iso-8859-1"?>
<!-- Generator: Adobe Illustrator 19.0.0, SVG Export Plug-In . SVG Version: 6.00 Build 0)  -->
<svg version="1.1" id="Layer_1" xmlns="http://www.w3.org/2000/svg" xmlns:xlink="http://www.w3.org/1999/xlink" x="0px" y="0px"
	 viewBox="0 0 512 512" style="enable-background:new 0 0 512 512;" xml:space="preserve">
<path style="fill:#FEDA44;" d="M47.628,354.186V253.07H0V26.837h321.488V253.07H136.105L47.628,354.186z"/>
<rect x="160.744" y="26.837" style="fill:#EEBF00;" width="160.744" height="226.233"/>
<path style="fill:#2487FF;" d="M464.372,485.163l-88.477-101.116H190.512V157.814H512v226.233h-47.628V485.163z"/>
<polygon style="fill:#016EF1;" points="351.256,157.814 351.256,384.046 375.895,384.046 464.372,485.163 464.372,384.046 
	512,384.046 512,157.814 "/>
<path style="fill:#FEDA44;" d="M336.967,275.693v-59.535h28.577v59.535H336.967z M336.967,318.558v-26.195h28.577v26.195H336.967z"
	/>
<path style="fill:#EEBF00;" d="M351.256,275.693v-59.535h14.288v59.535H351.256z M351.256,318.558v-26.195h14.288v26.195H351.256z"
	/>
<path style="fill:#D80029;" d="M133.739,150.574c0-2,0.094-3.976,0.286-5.93c0.189-1.952,0.666-3.809,1.429-5.572
	c0.762-1.761,1.905-3.452,3.429-5.072c1.522-1.618,3.572-3.095,6.144-4.429c1.047-0.572,2.548-1.332,4.501-2.286
	c1.952-0.951,3.904-2.094,5.858-3.429c1.952-1.332,3.644-2.833,5.072-4.501c1.429-1.666,2.143-3.501,2.143-5.501
	c0-2.19-0.857-3.929-2.572-5.215c-1.715-1.286-3.715-1.929-6.001-1.929c-1.715,0-3.192,0.335-4.429,1
	c-1.24,0.668-2.311,1.478-3.215,2.429c-0.906,0.954-1.668,1.929-2.286,2.929c-0.62,1-1.215,1.836-1.786,2.5l-17.289-12.288
	c2.475-5.809,6.381-10.335,11.716-13.574c5.333-3.238,11.431-4.858,18.289-4.858c3.62,0,7.287,0.524,11.002,1.572
	c3.715,1.049,7.073,2.715,10.073,5.001c3.001,2.286,5.43,5.287,7.287,9.002c1.857,3.715,2.786,8.241,2.786,13.574
	c0,4.572-0.835,8.74-2.5,12.502c-1.667,3.764-4.644,7.073-8.93,9.93c-2.096,1.429-4.24,2.668-6.43,3.715
	c-2.192,1.049-4.215,2.096-6.073,3.143c-1.857,1.049-3.382,2.143-4.572,3.286c-1.192,1.143-1.786,2.478-1.786,4.001H133.739z
	 M134.168,187.581v-23.433h22.147v23.433H134.168z"/>
<path style="fill:#A50020;" d="M183.391,100.422c-1.857-3.715-4.287-6.716-7.287-9.002c-3.001-2.286-6.358-3.952-10.073-5.001
	c-1.773-0.5-3.535-0.873-5.287-1.134v23.972c1.234,1.207,1.857,2.737,1.857,4.595c0,1.848-0.638,3.548-1.857,5.11v25.233
	c0.475-0.307,0.97-0.611,1.5-0.91c1.857-1.047,3.88-2.094,6.073-3.143c2.19-1.047,4.334-2.286,6.43-3.715
	c4.287-2.858,7.263-6.167,8.93-9.93c1.666-3.763,2.5-7.93,2.5-12.502C186.177,108.663,185.249,104.137,183.391,100.422z"/>
<g>
</g>
<g>
</g>
<g>
</g>
<g>
</g>
<g>
</g>
<g>
</g>
<g>
</g>
<g>
</g>
<g>
</g>
<g>
</g>
<g>
</g>
<g>
</g>
<g>
</g>
<g>
</g>
<g>
</g>
</svg>
